<?xml version="1.0" encoding="UTF-8" standalone="no"?><svg xmlns="http://www.w3.org/2000/svg" xmlns:xlink="http://www.w3.org/1999/xlink" contentScriptType="application/ecmascript" contentStyleType="text/css" height="669px" preserveAspectRatio="none" style="width:678px;height:669px;" version="1.1" viewBox="0 0 678 669" width="678px" zoomAndPan="magnify"><defs><filter height="300%" id="fnaatn3ylt2ar" width="300%" x="-1" y="-1"><feGaussianBlur result="blurOut" stdDeviation="2.0"/><feColorMatrix in="blurOut" result="blurOut2" type="matrix" values="0 0 0 0 0 0 0 0 0 0 0 0 0 0 0 0 0 0 .4 0"/><feOffset dx="4.0" dy="4.0" in="blurOut2" result="blurOut3"/><feBlend in="SourceGraphic" in2="blurOut3" mode="normal"/></filter></defs><g><rect fill="#FFFFFF" filter="url(#fnaatn3ylt2ar)" height="75.9316" style="stroke: #000000; stroke-width: 2.0;" width="400" x="254" y="57.4883"/><rect fill="#FFFFFF" filter="url(#fnaatn3ylt2ar)" height="193.1738" style="stroke: #000000; stroke-width: 2.0;" width="634" x="20" y="147.4199"/><rect fill="#FFFFFF" filter="url(#fnaatn3ylt2ar)" height="254.7949" style="stroke: #000000; stroke-width: 2.0;" width="654" x="10" y="354.5938"/><rect fill="#FFFFFF" filter="url(#fnaatn3ylt2ar)" height="75.9316" style="stroke: #000000; stroke-width: 2.0;" width="634" x="20" y="378.9043"/><rect fill="#FFFFFF" filter="url(#fnaatn3ylt2ar)" height="133.5527" style="stroke: #000000; stroke-width: 2.0;" width="634" x="20" y="468.8359"/><line style="stroke: #A80036; stroke-width: 1.0; stroke-dasharray: 5.0,5.0;" x1="94" x2="94" y1="40.4883" y2="626.3887"/><line style="stroke: #A80036; stroke-width: 1.0; stroke-dasharray: 5.0,5.0;" x1="297" x2="297" y1="40.4883" y2="626.3887"/><line style="stroke: #A80036; stroke-width: 1.0; stroke-dasharray: 5.0,5.0;" x1="544" x2="544" y1="40.4883" y2="626.3887"/><rect fill="#FEFECE" filter="url(#fnaatn3ylt2ar)" height="30.4883" style="stroke: #A80036; stroke-width: 1.5;" width="124" x="30" y="5"/><text fill="#000000" font-family="sans-serif" font-size="14" lengthAdjust="spacingAndGlyphs" textLength="110" x="37" y="25.5352">dummy-ven20b</text><rect fill="#FEFECE" filter="url(#fnaatn3ylt2ar)" height="30.4883" style="stroke: #A80036; stroke-width: 1.5;" width="124" x="30" y="625.3887"/><text fill="#000000" font-family="sans-serif" font-size="14" lengthAdjust="spacingAndGlyphs" textLength="110" x="37" y="645.9238">dummy-ven20b</text><rect fill="#FEFECE" filter="url(#fnaatn3ylt2ar)" height="30.4883" style="stroke: #A80036; stroke-width: 1.5;" width="62" x="264" y="5"/><text fill="#000000" font-family="sans-serif" font-size="14" lengthAdjust="spacingAndGlyphs" textLength="48" x="271" y="25.5352">vtn20b</text><rect fill="#FEFECE" filter="url(#fnaatn3ylt2ar)" height="30.4883" style="stroke: #A80036; stroke-width: 1.5;" width="62" x="264" y="625.3887"/><text fill="#000000" font-family="sans-serif" font-size="14" lengthAdjust="spacingAndGlyphs" textLength="48" x="271" y="645.9238">vtn20b</text><rect fill="#FEFECE" filter="url(#fnaatn3ylt2ar)" height="30.4883" style="stroke: #A80036; stroke-width: 1.5;" width="196" x="444" y="5"/><text fill="#000000" font-family="sans-serif" font-size="14" lengthAdjust="spacingAndGlyphs" textLength="182" x="451" y="25.5352">dummy-vtn20b-controller</text><rect fill="#FEFECE" filter="url(#fnaatn3ylt2ar)" height="30.4883" style="stroke: #A80036; stroke-width: 1.5;" width="196" x="444" y="625.3887"/><text fill="#000000" font-family="sans-serif" font-size="14" lengthAdjust="spacingAndGlyphs" textLength="182" x="451" y="645.9238">dummy-vtn20b-controller</text><path d="M254,57.4883 L442,57.4883 L442,64.4883 L432,74.4883 L254,74.4883 L254,57.4883 " fill="#EEEEEE" style="stroke: #000000; stroke-width: 1.0;"/><rect fill="none" height="75.9316" style="stroke: #000000; stroke-width: 2.0;" width="400" x="254" y="57.4883"/><text fill="#000000" font-family="sans-serif" font-size="13" font-weight="bold" lengthAdjust="spacingAndGlyphs" textLength="143" x="269" y="71.0566">Device provisionning</text><polygon fill="#A80036" points="308,92.1094,298,96.1094,308,100.1094,304,96.1094" style="stroke: #A80036; stroke-width: 1.0;"/><line style="stroke: #A80036; stroke-width: 1.0; stroke-dasharray: 2.0,2.0;" x1="302" x2="543" y1="96.1094" y2="96.1094"/><text fill="#000000" font-family="sans-serif" font-size="13" lengthAdjust="spacingAndGlyphs" textLength="184" x="314" y="91.3672">Creates MarketContext / VEN</text><polygon fill="#A80036" points="308,121.4199,298,125.4199,308,129.4199,304,125.4199" style="stroke: #A80036; stroke-width: 1.0;"/><line style="stroke: #A80036; stroke-width: 1.0; stroke-dasharray: 2.0,2.0;" x1="302" x2="543" y1="125.4199" y2="125.4199"/><text fill="#000000" font-family="sans-serif" font-size="13" lengthAdjust="spacingAndGlyphs" textLength="186" x="314" y="120.6777">Enrolls VEN to MarketContext</text><path d="M20,147.4199 L193,147.4199 L193,154.4199 L183,164.4199 L20,164.4199 L20,147.4199 " fill="#EEEEEE" style="stroke: #000000; stroke-width: 1.0;"/><rect fill="none" height="193.1738" style="stroke: #000000; stroke-width: 2.0;" width="634" x="20" y="147.4199"/><text fill="#000000" font-family="sans-serif" font-size="13" font-weight="bold" lengthAdjust="spacingAndGlyphs" textLength="128" x="35" y="160.9883">Device registration</text><polygon fill="#A80036" points="285,182.041,295,186.041,285,190.041,289,186.041" style="stroke: #A80036; stroke-width: 1.0;"/><line style="stroke: #A80036; stroke-width: 1.0; stroke-dasharray: 2.0,2.0;" x1="94" x2="291" y1="186.041" y2="186.041"/><text fill="#000000" font-family="sans-serif" font-size="13" lengthAdjust="spacingAndGlyphs" textLength="160" x="101" y="181.2988">Creates registration party</text><polygon fill="#A80036" points="532,211.3516,542,215.3516,532,219.3516,536,215.3516" style="stroke: #A80036; stroke-width: 1.0;"/><line style="stroke: #A80036; stroke-width: 1.0; stroke-dasharray: 2.0,2.0;" x1="297" x2="538" y1="215.3516" y2="215.3516"/><text fill="#000000" font-family="sans-serif" font-size="13" lengthAdjust="spacingAndGlyphs" textLength="116" x="304" y="210.6094">Notify registration</text><polygon fill="#A80036" points="285,240.6621,295,244.6621,285,248.6621,289,244.6621" style="stroke: #A80036; stroke-width: 1.0;"/><line style="stroke: #A80036; stroke-width: 1.0; stroke-dasharray: 2.0,2.0;" x1="94" x2="291" y1="244.6621" y2="244.6621"/><text fill="#000000" font-family="sans-serif" font-size="13" lengthAdjust="spacingAndGlyphs" textLength="107" x="101" y="239.9199">Registers reports</text><polygon fill="#A80036" points="532,269.9727,542,273.9727,532,277.9727,536,273.9727" style="stroke: #A80036; stroke-width: 1.0;"/><line style="stroke: #A80036; stroke-width: 1.0; stroke-dasharray: 2.0,2.0;" x1="297" x2="538" y1="273.9727" y2="273.9727"/><text fill="#000000" font-family="sans-serif" font-size="13" lengthAdjust="spacingAndGlyphs" textLength="140" x="304" y="269.2305">Notify register reports</text><polygon fill="#A80036" points="308,299.2832,298,303.2832,308,307.2832,304,303.2832" style="stroke: #A80036; stroke-width: 1.0;"/><line style="stroke: #A80036; stroke-width: 1.0; stroke-dasharray: 2.0,2.0;" x1="302" x2="543" y1="303.2832" y2="303.2832"/><text fill="#000000" font-family="sans-serif" font-size="13" lengthAdjust="spacingAndGlyphs" textLength="117" x="314" y="298.541">Subscribes reports</text><polygon fill="#A80036" points="105,328.5938,95,332.5938,105,336.5938,101,332.5938" style="stroke: #A80036; stroke-width: 1.0;"/><line style="stroke: #A80036; stroke-width: 1.0; stroke-dasharray: 2.0,2.0;" x1="99" x2="296" y1="332.5938" y2="332.5938"/><text fill="#000000" font-family="sans-serif" font-size="13" lengthAdjust="spacingAndGlyphs" textLength="179" x="111" y="327.8516">Creates reports subscription</text><path d="M10,354.5938 L169,354.5938 L169,361.5938 L159,371.5938 L10,371.5938 L10,354.5938 " fill="#EEEEEE" style="stroke: #000000; stroke-width: 1.0;"/><rect fill="none" height="254.7949" style="stroke: #000000; stroke-width: 2.0;" width="654" x="10" y="354.5938"/><text fill="#000000" font-family="sans-serif" font-size="13" font-weight="bold" lengthAdjust="spacingAndGlyphs" textLength="114" x="25" y="368.1621">Normal workflow</text><path d="M20,378.9043 L142,378.9043 L142,385.9043 L132,395.9043 L20,395.9043 L20,378.9043 " fill="#EEEEEE" style="stroke: #000000; stroke-width: 1.0;"/><rect fill="none" height="75.9316" style="stroke: #000000; stroke-width: 2.0;" width="634" x="20" y="378.9043"/><text fill="#000000" font-family="sans-serif" font-size="13" font-weight="bold" lengthAdjust="spacingAndGlyphs" textLength="77" x="35" y="392.4727">DRProgram</text><polygon fill="#A80036" points="308,413.5254,298,417.5254,308,421.5254,304,417.5254" style="stroke: #A80036; stroke-width: 1.0;"/><line style="stroke: #A80036; stroke-width: 1.0; stroke-dasharray: 2.0,2.0;" x1="302" x2="543" y1="417.5254" y2="417.5254"/><text fill="#000000" font-family="sans-serif" font-size="13" lengthAdjust="spacingAndGlyphs" textLength="223" x="314" y="412.7832">Creates DREvents in MarketContext</text><polygon fill="#A80036" points="105,442.8359,95,446.8359,105,450.8359,101,446.8359" style="stroke: #A80036; stroke-width: 1.0;"/><line style="stroke: #A80036; stroke-width: 1.0; stroke-dasharray: 2.0,2.0;" x1="99" x2="296" y1="446.8359" y2="446.8359"/><text fill="#000000" font-family="sans-serif" font-size="13" lengthAdjust="spacingAndGlyphs" textLength="93" x="111" y="442.0938">Send DREvents</text><path d="M20,468.8359 L153,468.8359 L153,475.8359 L143,485.8359 L20,485.8359 L20,468.8359 " fill="#EEEEEE" style="stroke: #000000; stroke-width: 1.0;"/><rect fill="none" height="133.5527" style="stroke: #000000; stroke-width: 2.0;" width="634" x="20" y="468.8359"/><text fill="#000000" font-family="sans-serif" font-size="13" font-weight="bold" lengthAdjust="spacingAndGlyphs" textLength="88" x="35" y="482.4043">Data reading</text><line style="stroke: #A80036; stroke-width: 1.0; stroke-dasharray: 2.0,2.0;" x1="94" x2="136" y1="522.7676" y2="522.7676"/><line style="stroke: #A80036; stroke-width: 1.0; stroke-dasharray: 2.0,2.0;" x1="136" x2="136" y1="522.7676" y2="535.7676"/><line style="stroke: #A80036; stroke-width: 1.0; stroke-dasharray: 2.0,2.0;" x1="95" x2="136" y1="535.7676" y2="535.7676"/><polygon fill="#A80036" points="105,531.7676,95,535.7676,105,539.7676,101,535.7676" style="stroke: #A80036; stroke-width: 1.0;"/><text fill="#000000" font-family="sans-serif" font-size="13" lengthAdjust="spacingAndGlyphs" textLength="143" x="101" y="502.7148">Simulate data readings</text><text fill="#000000" font-family="sans-serif" font-size="13" lengthAdjust="spacingAndGlyphs" textLength="176" x="105" y="518.0254">based on received DREvents</text><polygon fill="#A80036" points="285,561.0781,295,565.0781,285,569.0781,289,565.0781" style="stroke: #A80036; stroke-width: 1.0;"/><line style="stroke: #A80036; stroke-width: 1.0; stroke-dasharray: 2.0,2.0;" x1="94" x2="291" y1="565.0781" y2="565.0781"/><text fill="#000000" font-family="sans-serif" font-size="13" lengthAdjust="spacingAndGlyphs" textLength="100" x="101" y="560.3359">Updates reports</text><polygon fill="#A80036" points="532,590.3887,542,594.3887,532,598.3887,536,594.3887" style="stroke: #A80036; stroke-width: 1.0;"/><line style="stroke: #A80036; stroke-width: 1.0; stroke-dasharray: 2.0,2.0;" x1="297" x2="538" y1="594.3887" y2="594.3887"/><text fill="#000000" font-family="sans-serif" font-size="13" lengthAdjust="spacingAndGlyphs" textLength="117" x="304" y="589.6465">Notify data update</text><!--MD5=[e9f9b80a6c1aa03c7b406db0dc821e93]
@startuml demo_sequence_diagram

participant "dummy-ven20b" as dummyVen
participant "vtn20b" as vtn 
participant "dummy-vtn20b-controller" as dummyVtnController

group Device provisionning
dummyVtnController - -> vtn: Creates MarketContext / VEN
dummyVtnController - -> vtn: Enrolls VEN to MarketContext
end 

group Device registration
dummyVen - -> vtn: Creates registration party
vtn - -> dummyVtnController: Notify registration



dummyVen - -> vtn: Registers reports
vtn - -> dummyVtnController: Notify register reports
dummyVtnController- -> vtn: Subscribes reports
vtn - -> dummyVen: Creates reports subscription
end

group Normal workflow
group DRProgram
dummyVtnController - -> vtn: Creates DREvents in MarketContext
dummyVen <- - vtn: Send DREvents
end
group Data reading
dummyVen - -> dummyVen: Simulate data readings\n based on received DREvents
dummyVen - -> vtn: Updates reports
vtn - -> dummyVtnController: Notify data update
end

end

@enduml

PlantUML version 1.2020.19(Mon Oct 12 17:10:01 CEST 2020)
(GPL source distribution)
Java Runtime: OpenJDK Runtime Environment
JVM: OpenJDK 64-Bit Server VM
Default Encoding: UTF-8
Language: fr
Country: FR
--></g></svg>